<svg width="80" height="80" viewBox="0 0 64 64" fill="none" xmlns="http://www.w3.org/2000/svg">
  <!-- Row 3: 3 hexagons (bottom) -->
  <polygon points="11,52 17,56 23,52 23,44 17,40 11,44" fill="#1738BD" opacity="0.25"/>
  <polygon points="25,52 31,56 37,52 37,44 31,40 25,44" fill="#1738BD" opacity="0.55"/>
  <polygon points="39,52 45,56 51,52 51,44 45,40 39,44" fill="#1738BD" opacity="0.25"/>
  <!-- Row 2: 2 hexagons (mid) -->
  <polygon points="18,38 24,42 30,38 30,30 24,26 18,30" fill="#1738BD" opacity="0.6"/>
  <polygon points="32,38 38,42 44,38 44,30 38,26 32,30" fill="#1738BD" opacity="0.6"/>
  <!-- Row 1: 1 hexagon (top) -->
  <polygon points="25,24 31,28 37,24 37,16 31,12 25,16" fill="#1738BD"/>
</svg>
